# xmcd CD Database Entry
#
# Track frame offsets:
# 150
# 23608
# 48298
# 68352
# 92675
# 112331
# 133787
# 158449
# 183950
# 207591
# 227491
# 249201
# 272873
#
# Disc length: 3953 seconds
#
# Revision: 2
# Processed by: cddbd v1.4PL0 Copyright (c) Steve Scherf et al.
# Submitted via: tcd 2.0b
#
DISCID=a50f6f0d
DTITLE=VIVA LA VITA - by MARTINI
DYEAR=1900
DGENRE=
TTITLE0=G. CLUB pr. BANDA SONORA "Guitarra G"
TTITLE1=MOLOKO "The time is now"
TTITLE2=SEVEN DUB "Rock it tonight"
TTITLE3=LEVITATION "More then ever people"
TTITLE4=FREE WILL "Travellin' light"
TTITLE5=DJ OLIVER pr. SATALAIA "Satalaia ambient"
TTITLE6=RACOON feat. ROSE MAX "Sensaçao"
TTITLE7=NATIVE NEW YORKERS feat. EVELIZ ACEVEDO "Déjame soñar"
TTITLE8=NACHO SOTOMAYOR "Wonderful rmx"
TTITLE9=GLENN UNDERGROUND "Jaz love #2"
TTITLE10=JON CUTLER feat. E-MAN "It's yours"
TTITLE11=ECLECTIC "Roads"
TTITLE12=CUNNIE WILLIAMS "Barry's mood"
EXTD=Disc 2
EXTT0=
EXTT1=
EXTT2=
EXTT3=
EXTT4=
EXTT5=
EXTT6=
EXTT7=
EXTT8=
EXTT9=
EXTT10=
EXTT11=
EXTT12=
PLAYORDER=
